# MagicaVoxel @ Ephtracy

# group
g Coin

# material
mtllib Coin.mtl
usemtl palette

# normals
vn -1 0 0
vn 1 0 0
vn 0 0 1
vn 0 0 -1
vn 0 -1 0
vn 0 1 0

# texcoords
vt 0.0214844 0.5
vt 0.845703 0.5
vt 0.958984 0.5

# verts
v -9.5 6 1.5
v -9.5 6 0.5
v -9.5 6 -0.5
v -9.5 6 -1.5
v -9.5 13 1.5
v -9.5 13 0.5
v -9.5 13 -0.5
v -9.5 13 -1.5
v -8.5 4 1.5
v -8.5 4 0.5
v -8.5 4 -0.5
v -8.5 4 -1.5
v -8.5 6 1.5
v -8.5 6 0.5
v -8.5 6 -0.5
v -8.5 6 -1.5
v -8.5 13 1.5
v -8.5 13 0.5
v -8.5 13 -0.5
v -8.5 13 -1.5
v -8.5 14 0.5
v -8.5 14 -0.5
v -8.5 15 1.5
v -8.5 15 0.5
v -8.5 15 -0.5
v -8.5 15 -1.5
v -7.5 3 1.5
v -7.5 3 0.5
v -7.5 3 -0.5
v -7.5 3 -1.5
v -7.5 4 1.5
v -7.5 4 0.5
v -7.5 4 -0.5
v -7.5 4 -1.5
v -7.5 6 0.5
v -7.5 6 -0.5
v -7.5 14 0.5
v -7.5 14 -0.5
v -7.5 15 1.5
v -7.5 15 0.5
v -7.5 15 -0.5
v -7.5 15 -1.5
v -7.5 16 1.5
v -7.5 16 0.5
v -7.5 16 -0.5
v -7.5 16 -1.5
v -6.5 2 1.5
v -6.5 2 0.5
v -6.5 2 -0.5
v -6.5 2 -1.5
v -6.5 3 1.5
v -6.5 3 0.5
v -6.5 3 -0.5
v -6.5 3 -1.5
v -6.5 4 0.5
v -6.5 4 -0.5
v -6.5 15 0.5
v -6.5 15 -0.5
v -6.5 16 1.5
v -6.5 16 0.5
v -6.5 16 -0.5
v -6.5 16 -1.5
v -6.5 17 1.5
v -6.5 17 0.5
v -6.5 17 -0.5
v -6.5 17 -1.5
v -5.5 1 1.5
v -5.5 1 0.5
v -5.5 1 -0.5
v -5.5 1 -1.5
v -5.5 2 1.5
v -5.5 2 0.5
v -5.5 2 -0.5
v -5.5 2 -1.5
v -5.5 3 0.5
v -5.5 3 -0.5
v -5.5 16 0.5
v -5.5 16 -0.5
v -5.5 17 1.5
v -5.5 17 0.5
v -5.5 17 -0.5
v -5.5 17 -1.5
v -5.5 18 1.5
v -5.5 18 0.5
v -5.5 18 -0.5
v -5.5 18 -1.5
v -3.5 0 1.5
v -3.5 0 0.5
v -3.5 0 -0.5
v -3.5 0 -1.5
v -3.5 1 1.5
v -3.5 1 0.5
v -3.5 1 -0.5
v -3.5 1 -1.5
v -3.5 2 0.5
v -3.5 2 -0.5
v -3.5 17 0.5
v -3.5 17 -0.5
v -3.5 18 1.5
v -3.5 18 0.5
v -3.5 18 -0.5
v -3.5 18 -1.5
v -3.5 19 1.5
v -3.5 19 0.5
v -3.5 19 -0.5
v -3.5 19 -1.5
v 3.5 0 1.5
v 3.5 0 0.5
v 3.5 0 -0.5
v 3.5 0 -1.5
v 3.5 1 1.5
v 3.5 1 0.5
v 3.5 1 -0.5
v 3.5 1 -1.5
v 3.5 2 0.5
v 3.5 2 -0.5
v 3.5 17 0.5
v 3.5 17 -0.5
v 3.5 18 1.5
v 3.5 18 0.5
v 3.5 18 -0.5
v 3.5 18 -1.5
v 3.5 19 1.5
v 3.5 19 0.5
v 3.5 19 -0.5
v 3.5 19 -1.5
v 5.5 1 1.5
v 5.5 1 0.5
v 5.5 1 -0.5
v 5.5 1 -1.5
v 5.5 2 1.5
v 5.5 2 0.5
v 5.5 2 -0.5
v 5.5 2 -1.5
v 5.5 3 0.5
v 5.5 3 -0.5
v 5.5 16 0.5
v 5.5 16 -0.5
v 5.5 17 1.5
v 5.5 17 0.5
v 5.5 17 -0.5
v 5.5 17 -1.5
v 5.5 18 1.5
v 5.5 18 0.5
v 5.5 18 -0.5
v 5.5 18 -1.5
v 6.5 2 1.5
v 6.5 2 0.5
v 6.5 2 -0.5
v 6.5 2 -1.5
v 6.5 3 1.5
v 6.5 3 0.5
v 6.5 3 -0.5
v 6.5 3 -1.5
v 6.5 4 0.5
v 6.5 4 -0.5
v 6.5 15 0.5
v 6.5 15 -0.5
v 6.5 16 1.5
v 6.5 16 0.5
v 6.5 16 -0.5
v 6.5 16 -1.5
v 6.5 17 1.5
v 6.5 17 0.5
v 6.5 17 -0.5
v 6.5 17 -1.5
v 7.5 3 1.5
v 7.5 3 0.5
v 7.5 3 -0.5
v 7.5 3 -1.5
v 7.5 4 1.5
v 7.5 4 0.5
v 7.5 4 -0.5
v 7.5 4 -1.5
v 7.5 6 0.5
v 7.5 6 -0.5
v 7.5 14 0.5
v 7.5 14 -0.5
v 7.5 15 1.5
v 7.5 15 0.5
v 7.5 15 -0.5
v 7.5 15 -1.5
v 7.5 16 1.5
v 7.5 16 0.5
v 7.5 16 -0.5
v 7.5 16 -1.5
v 8.5 4 1.5
v 8.5 4 0.5
v 8.5 4 -0.5
v 8.5 4 -1.5
v 8.5 6 1.5
v 8.5 6 0.5
v 8.5 6 -0.5
v 8.5 6 -1.5
v 8.5 13 1.5
v 8.5 13 0.5
v 8.5 13 -0.5
v 8.5 13 -1.5
v 8.5 14 0.5
v 8.5 14 -0.5
v 8.5 15 1.5
v 8.5 15 0.5
v 8.5 15 -0.5
v 8.5 15 -1.5
v 9.5 6 1.5
v 9.5 6 0.5
v 9.5 6 -0.5
v 9.5 6 -1.5
v 9.5 13 1.5
v 9.5 13 0.5
v 9.5 13 -0.5
v 9.5 13 -1.5
v -9.5 6 1.5
v -9.5 13 1.5
v -8.5 4 1.5
v -8.5 6 1.5
v -8.5 13 1.5
v -8.5 15 1.5
v -7.5 3 1.5
v -7.5 4 1.5
v -7.5 15 1.5
v -7.5 16 1.5
v -6.5 2 1.5
v -6.5 3 1.5
v -6.5 16 1.5
v -6.5 17 1.5
v -5.5 1 1.5
v -5.5 2 1.5
v -5.5 17 1.5
v -5.5 18 1.5
v -3.5 0 1.5
v -3.5 1 1.5
v -3.5 7 1.5
v -3.5 14 1.5
v -3.5 18 1.5
v -3.5 19 1.5
v -2.5 6 1.5
v -2.5 7 1.5
v -2.5 8 1.5
v -2.5 9 1.5
v -2.5 11 1.5
v -2.5 13 1.5
v -1.5 7 1.5
v -1.5 8 1.5
v -1.5 9 1.5
v -0.5 11 1.5
v -0.5 13 1.5
v 0.5 11 1.5
v 0.5 13 1.5
v 1.5 7 1.5
v 1.5 8 1.5
v 1.5 9 1.5
v 2.5 6 1.5
v 2.5 7 1.5
v 2.5 8 1.5
v 2.5 9 1.5
v 2.5 11 1.5
v 2.5 13 1.5
v 3.5 0 1.5
v 3.5 1 1.5
v 3.5 7 1.5
v 3.5 14 1.5
v 3.5 18 1.5
v 3.5 19 1.5
v 5.5 1 1.5
v 5.5 2 1.5
v 5.5 17 1.5
v 5.5 18 1.5
v 6.5 2 1.5
v 6.5 3 1.5
v 6.5 16 1.5
v 6.5 17 1.5
v 7.5 3 1.5
v 7.5 4 1.5
v 7.5 15 1.5
v 7.5 16 1.5
v 8.5 4 1.5
v 8.5 6 1.5
v 8.5 13 1.5
v 8.5 15 1.5
v 9.5 6 1.5
v 9.5 13 1.5
v -9.5 6 -0.5
v -9.5 13 -0.5
v -8.5 4 -0.5
v -8.5 6 -0.5
v -8.5 13 -0.5
v -8.5 14 -0.5
v -8.5 15 -0.5
v -7.5 3 -0.5
v -7.5 4 -0.5
v -7.5 6 -0.5
v -7.5 14 -0.5
v -7.5 15 -0.5
v -7.5 16 -0.5
v -6.5 2 -0.5
v -6.5 3 -0.5
v -6.5 4 -0.5
v -6.5 15 -0.5
v -6.5 16 -0.5
v -6.5 17 -0.5
v -5.5 1 -0.5
v -5.5 2 -0.5
v -5.5 3 -0.5
v -5.5 16 -0.5
v -5.5 17 -0.5
v -5.5 18 -0.5
v -3.5 0 -0.5
v -3.5 1 -0.5
v -3.5 2 -0.5
v -3.5 17 -0.5
v -3.5 18 -0.5
v -3.5 19 -0.5
v 3.5 0 -0.5
v 3.5 1 -0.5
v 3.5 2 -0.5
v 3.5 17 -0.5
v 3.5 18 -0.5
v 3.5 19 -0.5
v 5.5 1 -0.5
v 5.5 2 -0.5
v 5.5 3 -0.5
v 5.5 16 -0.5
v 5.5 17 -0.5
v 5.5 18 -0.5
v 6.5 2 -0.5
v 6.5 3 -0.5
v 6.5 4 -0.5
v 6.5 15 -0.5
v 6.5 16 -0.5
v 6.5 17 -0.5
v 7.5 3 -0.5
v 7.5 4 -0.5
v 7.5 6 -0.5
v 7.5 14 -0.5
v 7.5 15 -0.5
v 7.5 16 -0.5
v 8.5 4 -0.5
v 8.5 6 -0.5
v 8.5 13 -0.5
v 8.5 14 -0.5
v 8.5 15 -0.5
v 9.5 6 -0.5
v 9.5 13 -0.5
v -9.5 6 0.5
v -9.5 13 0.5
v -8.5 4 0.5
v -8.5 6 0.5
v -8.5 13 0.5
v -8.5 14 0.5
v -8.5 15 0.5
v -7.5 3 0.5
v -7.5 4 0.5
v -7.5 6 0.5
v -7.5 14 0.5
v -7.5 15 0.5
v -7.5 16 0.5
v -6.5 2 0.5
v -6.5 3 0.5
v -6.5 4 0.5
v -6.5 15 0.5
v -6.5 16 0.5
v -6.5 17 0.5
v -5.5 1 0.5
v -5.5 2 0.5
v -5.5 3 0.5
v -5.5 16 0.5
v -5.5 17 0.5
v -5.5 18 0.5
v -3.5 0 0.5
v -3.5 1 0.5
v -3.5 2 0.5
v -3.5 17 0.5
v -3.5 18 0.5
v -3.5 19 0.5
v 3.5 0 0.5
v 3.5 1 0.5
v 3.5 2 0.5
v 3.5 17 0.5
v 3.5 18 0.5
v 3.5 19 0.5
v 5.5 1 0.5
v 5.5 2 0.5
v 5.5 3 0.5
v 5.5 16 0.5
v 5.5 17 0.5
v 5.5 18 0.5
v 6.5 2 0.5
v 6.5 3 0.5
v 6.5 4 0.5
v 6.5 15 0.5
v 6.5 16 0.5
v 6.5 17 0.5
v 7.5 3 0.5
v 7.5 4 0.5
v 7.5 6 0.5
v 7.5 14 0.5
v 7.5 15 0.5
v 7.5 16 0.5
v 8.5 4 0.5
v 8.5 6 0.5
v 8.5 13 0.5
v 8.5 14 0.5
v 8.5 15 0.5
v 9.5 6 0.5
v 9.5 13 0.5
v -9.5 6 -1.5
v -9.5 13 -1.5
v -8.5 4 -1.5
v -8.5 6 -1.5
v -8.5 13 -1.5
v -8.5 15 -1.5
v -7.5 3 -1.5
v -7.5 4 -1.5
v -7.5 15 -1.5
v -7.5 16 -1.5
v -6.5 2 -1.5
v -6.5 3 -1.5
v -6.5 16 -1.5
v -6.5 17 -1.5
v -5.5 1 -1.5
v -5.5 2 -1.5
v -5.5 17 -1.5
v -5.5 18 -1.5
v -3.5 0 -1.5
v -3.5 1 -1.5
v -3.5 18 -1.5
v -3.5 19 -1.5
v 3.5 0 -1.5
v 3.5 1 -1.5
v 3.5 18 -1.5
v 3.5 19 -1.5
v 5.5 1 -1.5
v 5.5 2 -1.5
v 5.5 17 -1.5
v 5.5 18 -1.5
v 6.5 2 -1.5
v 6.5 3 -1.5
v 6.5 16 -1.5
v 6.5 17 -1.5
v 7.5 3 -1.5
v 7.5 4 -1.5
v 7.5 15 -1.5
v 7.5 16 -1.5
v 8.5 4 -1.5
v 8.5 6 -1.5
v 8.5 13 -1.5
v 8.5 15 -1.5
v 9.5 6 -1.5
v 9.5 13 -1.5
v -3.5 0 1.5
v 3.5 0 1.5
v -3.5 0 0.5
v 3.5 0 0.5
v -3.5 0 -0.5
v 3.5 0 -0.5
v -3.5 0 -1.5
v 3.5 0 -1.5
v -5.5 1 1.5
v -3.5 1 1.5
v 3.5 1 1.5
v 5.5 1 1.5
v -5.5 1 0.5
v -3.5 1 0.5
v 3.5 1 0.5
v 5.5 1 0.5
v -5.5 1 -0.5
v -3.5 1 -0.5
v 3.5 1 -0.5
v 5.5 1 -0.5
v -5.5 1 -1.5
v -3.5 1 -1.5
v 3.5 1 -1.5
v 5.5 1 -1.5
v -6.5 2 1.5
v -5.5 2 1.5
v 5.5 2 1.5
v 6.5 2 1.5
v -6.5 2 0.5
v -5.5 2 0.5
v -3.5 2 0.5
v 3.5 2 0.5
v 5.5 2 0.5
v 6.5 2 0.5
v -6.5 2 -0.5
v -5.5 2 -0.5
v -3.5 2 -0.5
v 3.5 2 -0.5
v 5.5 2 -0.5
v 6.5 2 -0.5
v -6.5 2 -1.5
v -5.5 2 -1.5
v 5.5 2 -1.5
v 6.5 2 -1.5
v -7.5 3 1.5
v -6.5 3 1.5
v 6.5 3 1.5
v 7.5 3 1.5
v -7.5 3 0.5
v -6.5 3 0.5
v -5.5 3 0.5
v 5.5 3 0.5
v 6.5 3 0.5
v 7.5 3 0.5
v -7.5 3 -0.5
v -6.5 3 -0.5
v -5.5 3 -0.5
v 5.5 3 -0.5
v 6.5 3 -0.5
v 7.5 3 -0.5
v -7.5 3 -1.5
v -6.5 3 -1.5
v 6.5 3 -1.5
v 7.5 3 -1.5
v -8.5 4 1.5
v -7.5 4 1.5
v 7.5 4 1.5
v 8.5 4 1.5
v -8.5 4 0.5
v -7.5 4 0.5
v -6.5 4 0.5
v 6.5 4 0.5
v 7.5 4 0.5
v 8.5 4 0.5
v -8.5 4 -0.5
v -7.5 4 -0.5
v -6.5 4 -0.5
v 6.5 4 -0.5
v 7.5 4 -0.5
v 8.5 4 -0.5
v -8.5 4 -1.5
v -7.5 4 -1.5
v 7.5 4 -1.5
v 8.5 4 -1.5
v -9.5 6 1.5
v -8.5 6 1.5
v 8.5 6 1.5
v 9.5 6 1.5
v -9.5 6 0.5
v -8.5 6 0.5
v -7.5 6 0.5
v 7.5 6 0.5
v 8.5 6 0.5
v 9.5 6 0.5
v -9.5 6 -0.5
v -8.5 6 -0.5
v -7.5 6 -0.5
v 7.5 6 -0.5
v 8.5 6 -0.5
v 9.5 6 -0.5
v -9.5 6 -1.5
v -8.5 6 -1.5
v 8.5 6 -1.5
v 9.5 6 -1.5
v -9.5 13 1.5
v -8.5 13 1.5
v 8.5 13 1.5
v 9.5 13 1.5
v -9.5 13 0.5
v -8.5 13 0.5
v 8.5 13 0.5
v 9.5 13 0.5
v -9.5 13 -0.5
v -8.5 13 -0.5
v 8.5 13 -0.5
v 9.5 13 -0.5
v -9.5 13 -1.5
v -8.5 13 -1.5
v 8.5 13 -1.5
v 9.5 13 -1.5
v -8.5 14 0.5
v -7.5 14 0.5
v 7.5 14 0.5
v 8.5 14 0.5
v -8.5 14 -0.5
v -7.5 14 -0.5
v 7.5 14 -0.5
v 8.5 14 -0.5
v -8.5 15 1.5
v -7.5 15 1.5
v 7.5 15 1.5
v 8.5 15 1.5
v -8.5 15 0.5
v -7.5 15 0.5
v -6.5 15 0.5
v 6.5 15 0.5
v 7.5 15 0.5
v 8.5 15 0.5
v -8.5 15 -0.5
v -7.5 15 -0.5
v -6.5 15 -0.5
v 6.5 15 -0.5
v 7.5 15 -0.5
v 8.5 15 -0.5
v -8.5 15 -1.5
v -7.5 15 -1.5
v 7.5 15 -1.5
v 8.5 15 -1.5
v -7.5 16 1.5
v -6.5 16 1.5
v 6.5 16 1.5
v 7.5 16 1.5
v -7.5 16 0.5
v -6.5 16 0.5
v -5.5 16 0.5
v 5.5 16 0.5
v 6.5 16 0.5
v 7.5 16 0.5
v -7.5 16 -0.5
v -6.5 16 -0.5
v -5.5 16 -0.5
v 5.5 16 -0.5
v 6.5 16 -0.5
v 7.5 16 -0.5
v -7.5 16 -1.5
v -6.5 16 -1.5
v 6.5 16 -1.5
v 7.5 16 -1.5
v -6.5 17 1.5
v -5.5 17 1.5
v 5.5 17 1.5
v 6.5 17 1.5
v -6.5 17 0.5
v -5.5 17 0.5
v -3.5 17 0.5
v 3.5 17 0.5
v 5.5 17 0.5
v 6.5 17 0.5
v -6.5 17 -0.5
v -5.5 17 -0.5
v -3.5 17 -0.5
v 3.5 17 -0.5
v 5.5 17 -0.5
v 6.5 17 -0.5
v -6.5 17 -1.5
v -5.5 17 -1.5
v 5.5 17 -1.5
v 6.5 17 -1.5
v -5.5 18 1.5
v -3.5 18 1.5
v 3.5 18 1.5
v 5.5 18 1.5
v -5.5 18 0.5
v -3.5 18 0.5
v 3.5 18 0.5
v 5.5 18 0.5
v -5.5 18 -0.5
v -3.5 18 -0.5
v 3.5 18 -0.5
v 5.5 18 -0.5
v -5.5 18 -1.5
v -3.5 18 -1.5
v 3.5 18 -1.5
v 5.5 18 -1.5
v -3.5 19 1.5
v 3.5 19 1.5
v -3.5 19 0.5
v 3.5 19 0.5
v -3.5 19 -0.5
v 3.5 19 -0.5
v -3.5 19 -1.5
v 3.5 19 -1.5

# faces
f 5/1/1 2/1/1 1/1/1
f 6/1/1 2/1/1 5/1/1
f 7/1/1 4/1/1 3/1/1
f 8/1/1 4/1/1 7/1/1
f 13/1/1 10/1/1 9/1/1
f 14/1/1 10/1/1 13/1/1
f 15/1/1 12/1/1 11/1/1
f 16/1/1 12/1/1 15/1/1
f 18/2/1 15/2/1 14/2/1
f 19/2/1 15/2/1 18/2/1
f 21/1/1 18/1/1 17/1/1
f 21/2/1 19/2/1 18/2/1
f 22/1/1 20/1/1 19/1/1
f 22/2/1 19/2/1 21/2/1
f 23/1/1 21/1/1 17/1/1
f 24/1/1 21/1/1 23/1/1
f 25/1/1 20/1/1 22/1/1
f 26/1/1 20/1/1 25/1/1
f 31/1/1 28/1/1 27/1/1
f 32/1/1 28/1/1 31/1/1
f 33/1/1 30/1/1 29/1/1
f 34/1/1 30/1/1 33/1/1
f 35/2/1 33/2/1 32/2/1
f 36/2/1 33/2/1 35/2/1
f 40/2/1 38/2/1 37/2/1
f 41/2/1 38/2/1 40/2/1
f 43/1/1 40/1/1 39/1/1
f 44/1/1 40/1/1 43/1/1
f 45/1/1 42/1/1 41/1/1
f 46/1/1 42/1/1 45/1/1
f 51/1/1 48/1/1 47/1/1
f 52/1/1 48/1/1 51/1/1
f 53/1/1 50/1/1 49/1/1
f 54/1/1 50/1/1 53/1/1
f 55/2/1 53/2/1 52/2/1
f 56/2/1 53/2/1 55/2/1
f 60/2/1 58/2/1 57/2/1
f 61/2/1 58/2/1 60/2/1
f 63/1/1 60/1/1 59/1/1
f 64/1/1 60/1/1 63/1/1
f 65/1/1 62/1/1 61/1/1
f 66/1/1 62/1/1 65/1/1
f 71/1/1 68/1/1 67/1/1
f 72/1/1 68/1/1 71/1/1
f 73/1/1 70/1/1 69/1/1
f 74/1/1 70/1/1 73/1/1
f 75/2/1 73/2/1 72/2/1
f 76/2/1 73/2/1 75/2/1
f 80/2/1 78/2/1 77/2/1
f 81/2/1 78/2/1 80/2/1
f 83/1/1 80/1/1 79/1/1
f 84/1/1 80/1/1 83/1/1
f 85/1/1 82/1/1 81/1/1
f 86/1/1 82/1/1 85/1/1
f 91/1/1 88/1/1 87/1/1
f 92/1/1 88/1/1 91/1/1
f 93/1/1 90/1/1 89/1/1
f 94/1/1 90/1/1 93/1/1
f 95/2/1 93/2/1 92/2/1
f 96/2/1 93/2/1 95/2/1
f 100/2/1 98/2/1 97/2/1
f 101/2/1 98/2/1 100/2/1
f 103/1/1 100/1/1 99/1/1
f 104/1/1 100/1/1 103/1/1
f 105/1/1 102/1/1 101/1/1
f 106/1/1 102/1/1 105/1/1
f 107/1/2 108/1/2 111/1/2
f 111/1/2 108/1/2 112/1/2
f 109/1/2 110/1/2 113/1/2
f 113/1/2 110/1/2 114/1/2
f 112/2/2 113/2/2 115/2/2
f 115/2/2 113/2/2 116/2/2
f 117/2/2 118/2/2 120/2/2
f 120/2/2 118/2/2 121/2/2
f 119/1/2 120/1/2 123/1/2
f 123/1/2 120/1/2 124/1/2
f 121/1/2 122/1/2 125/1/2
f 125/1/2 122/1/2 126/1/2
f 127/1/2 128/1/2 131/1/2
f 131/1/2 128/1/2 132/1/2
f 129/1/2 130/1/2 133/1/2
f 133/1/2 130/1/2 134/1/2
f 132/2/2 133/2/2 135/2/2
f 135/2/2 133/2/2 136/2/2
f 137/2/2 138/2/2 140/2/2
f 140/2/2 138/2/2 141/2/2
f 139/1/2 140/1/2 143/1/2
f 143/1/2 140/1/2 144/1/2
f 141/1/2 142/1/2 145/1/2
f 145/1/2 142/1/2 146/1/2
f 147/1/2 148/1/2 151/1/2
f 151/1/2 148/1/2 152/1/2
f 149/1/2 150/1/2 153/1/2
f 153/1/2 150/1/2 154/1/2
f 152/2/2 153/2/2 155/2/2
f 155/2/2 153/2/2 156/2/2
f 157/2/2 158/2/2 160/2/2
f 160/2/2 158/2/2 161/2/2
f 159/1/2 160/1/2 163/1/2
f 163/1/2 160/1/2 164/1/2
f 161/1/2 162/1/2 165/1/2
f 165/1/2 162/1/2 166/1/2
f 167/1/2 168/1/2 171/1/2
f 171/1/2 168/1/2 172/1/2
f 169/1/2 170/1/2 173/1/2
f 173/1/2 170/1/2 174/1/2
f 172/2/2 173/2/2 175/2/2
f 175/2/2 173/2/2 176/2/2
f 177/2/2 178/2/2 180/2/2
f 180/2/2 178/2/2 181/2/2
f 179/1/2 180/1/2 183/1/2
f 183/1/2 180/1/2 184/1/2
f 181/1/2 182/1/2 185/1/2
f 185/1/2 182/1/2 186/1/2
f 187/1/2 188/1/2 191/1/2
f 191/1/2 188/1/2 192/1/2
f 189/1/2 190/1/2 193/1/2
f 193/1/2 190/1/2 194/1/2
f 192/2/2 193/2/2 196/2/2
f 196/2/2 193/2/2 197/2/2
f 195/1/2 196/1/2 199/1/2
f 196/2/2 197/2/2 199/2/2
f 197/1/2 198/1/2 200/1/2
f 199/2/2 197/2/2 200/2/2
f 195/1/2 199/1/2 201/1/2
f 201/1/2 199/1/2 202/1/2
f 200/1/2 198/1/2 203/1/2
f 203/1/2 198/1/2 204/1/2
f 205/1/2 206/1/2 209/1/2
f 209/1/2 206/1/2 210/1/2
f 207/1/2 208/1/2 211/1/2
f 211/1/2 208/1/2 212/1/2
f 216/1/3 214/1/3 213/1/3
f 217/1/3 214/1/3 216/1/3
f 220/1/3 216/1/3 215/1/3
f 220/1/3 218/1/3 217/1/3
f 220/1/3 217/1/3 216/1/3
f 221/1/3 218/1/3 220/1/3
f 224/1/3 220/1/3 219/1/3
f 224/1/3 222/1/3 221/1/3
f 224/1/3 221/1/3 220/1/3
f 225/1/3 222/1/3 224/1/3
f 228/1/3 224/1/3 223/1/3
f 228/1/3 226/1/3 225/1/3
f 228/1/3 225/1/3 224/1/3
f 229/1/3 226/1/3 228/1/3
f 232/1/3 228/1/3 227/1/3
f 232/1/3 230/1/3 229/1/3
f 232/1/3 229/1/3 228/1/3
f 233/1/3 230/1/3 232/1/3
f 234/1/3 230/1/3 233/1/3
f 235/1/3 230/1/3 234/1/3
f 237/1/3 232/1/3 231/1/3
f 237/1/3 233/1/3 232/1/3
f 238/3/3 234/3/3 233/3/3
f 238/1/3 233/1/3 237/1/3
f 239/3/3 234/3/3 238/3/3
f 240/3/3 234/3/3 239/3/3
f 241/3/3 234/3/3 240/3/3
f 242/3/3 234/3/3 241/3/3
f 243/3/3 238/3/3 237/3/3
f 243/3/3 239/3/3 238/3/3
f 244/2/3 240/2/3 239/2/3
f 244/3/3 239/3/3 243/3/3
f 245/3/3 241/3/3 240/3/3
f 245/2/3 240/2/3 244/2/3
f 246/2/3 242/2/3 241/2/3
f 246/3/3 241/3/3 245/3/3
f 246/3/3 245/3/3 244/3/3
f 247/3/3 234/3/3 242/3/3
f 247/2/3 242/2/3 246/2/3
f 248/3/3 246/3/3 244/3/3
f 248/3/3 247/3/3 246/3/3
f 249/3/3 234/3/3 247/3/3
f 249/3/3 247/3/3 248/3/3
f 250/2/3 244/2/3 243/2/3
f 250/3/3 243/3/3 237/3/3
f 251/3/3 248/3/3 244/3/3
f 251/2/3 244/2/3 250/2/3
f 252/3/3 248/3/3 251/3/3
f 253/1/3 237/1/3 231/1/3
f 253/3/3 250/3/3 237/3/3
f 253/3/3 251/3/3 250/3/3
f 254/3/3 251/3/3 253/3/3
f 255/2/3 252/2/3 251/2/3
f 255/3/3 251/3/3 254/3/3
f 256/3/3 248/3/3 252/3/3
f 256/2/3 252/2/3 255/2/3
f 257/2/3 249/2/3 248/2/3
f 257/3/3 248/3/3 256/3/3
f 258/3/3 234/3/3 249/3/3
f 258/2/3 249/2/3 257/2/3
f 259/1/3 254/1/3 253/1/3
f 259/1/3 253/1/3 231/1/3
f 260/1/3 254/1/3 259/1/3
f 261/3/3 255/3/3 254/3/3
f 261/1/3 254/1/3 260/1/3
f 261/3/3 257/3/3 256/3/3
f 261/3/3 256/3/3 255/3/3
f 261/3/3 258/3/3 257/3/3
f 262/1/3 236/1/3 235/1/3
f 262/3/3 258/3/3 261/3/3
f 262/1/3 235/1/3 234/1/3
f 262/3/3 234/3/3 258/3/3
f 263/1/3 236/1/3 262/1/3
f 264/1/3 236/1/3 263/1/3
f 265/1/3 261/1/3 260/1/3
f 265/1/3 263/1/3 262/1/3
f 265/1/3 262/1/3 261/1/3
f 266/1/3 263/1/3 265/1/3
f 267/1/3 263/1/3 266/1/3
f 268/1/3 263/1/3 267/1/3
f 269/1/3 267/1/3 266/1/3
f 270/1/3 267/1/3 269/1/3
f 271/1/3 267/1/3 270/1/3
f 272/1/3 267/1/3 271/1/3
f 273/1/3 271/1/3 270/1/3
f 274/1/3 271/1/3 273/1/3
f 275/1/3 271/1/3 274/1/3
f 276/1/3 271/1/3 275/1/3
f 277/1/3 275/1/3 274/1/3
f 278/1/3 275/1/3 277/1/3
f 279/1/3 275/1/3 278/1/3
f 280/1/3 275/1/3 279/1/3
f 281/1/3 279/1/3 278/1/3
f 282/1/3 279/1/3 281/1/3
f 286/1/3 284/1/3 283/1/3
f 287/1/3 284/1/3 286/1/3
f 291/1/3 286/1/3 285/1/3
f 292/1/3 286/1/3 291/1/3
f 293/1/3 289/1/3 288/1/3
f 294/1/3 289/1/3 293/1/3
f 297/1/3 291/1/3 290/1/3
f 298/1/3 291/1/3 297/1/3
f 299/1/3 295/1/3 294/1/3
f 300/1/3 295/1/3 299/1/3
f 303/1/3 297/1/3 296/1/3
f 304/1/3 297/1/3 303/1/3
f 305/1/3 301/1/3 300/1/3
f 306/1/3 301/1/3 305/1/3
f 309/1/3 303/1/3 302/1/3
f 310/1/3 303/1/3 309/1/3
f 311/1/3 307/1/3 306/1/3
f 312/1/3 307/1/3 311/1/3
f 314/1/3 309/1/3 308/1/3
f 315/1/3 309/1/3 314/1/3
f 318/1/3 313/1/3 312/1/3
f 319/1/3 313/1/3 318/1/3
f 320/1/3 316/1/3 315/1/3
f 321/1/3 316/1/3 320/1/3
f 324/1/3 318/1/3 317/1/3
f 325/1/3 318/1/3 324/1/3
f 326/1/3 322/1/3 321/1/3
f 327/1/3 322/1/3 326/1/3
f 330/1/3 324/1/3 323/1/3
f 331/1/3 324/1/3 330/1/3
f 332/1/3 328/1/3 327/1/3
f 333/1/3 328/1/3 332/1/3
f 336/1/3 330/1/3 329/1/3
f 337/1/3 330/1/3 336/1/3
f 338/1/3 334/1/3 333/1/3
f 339/1/3 334/1/3 338/1/3
f 341/1/3 336/1/3 335/1/3
f 342/1/3 336/1/3 341/1/3
f 343/1/3 340/1/3 339/1/3
f 344/1/3 340/1/3 343/1/3
f 345/1/4 346/1/4 348/1/4
f 348/1/4 346/1/4 349/1/4
f 347/1/4 348/1/4 353/1/4
f 353/1/4 348/1/4 354/1/4
f 350/1/4 351/1/4 355/1/4
f 355/1/4 351/1/4 356/1/4
f 352/1/4 353/1/4 359/1/4
f 359/1/4 353/1/4 360/1/4
f 356/1/4 357/1/4 361/1/4
f 361/1/4 357/1/4 362/1/4
f 358/1/4 359/1/4 365/1/4
f 365/1/4 359/1/4 366/1/4
f 362/1/4 363/1/4 367/1/4
f 367/1/4 363/1/4 368/1/4
f 364/1/4 365/1/4 371/1/4
f 371/1/4 365/1/4 372/1/4
f 368/1/4 369/1/4 373/1/4
f 373/1/4 369/1/4 374/1/4
f 370/1/4 371/1/4 376/1/4
f 376/1/4 371/1/4 377/1/4
f 374/1/4 375/1/4 380/1/4
f 380/1/4 375/1/4 381/1/4
f 377/1/4 378/1/4 382/1/4
f 382/1/4 378/1/4 383/1/4
f 379/1/4 380/1/4 386/1/4
f 386/1/4 380/1/4 387/1/4
f 383/1/4 384/1/4 388/1/4
f 388/1/4 384/1/4 389/1/4
f 385/1/4 386/1/4 392/1/4
f 392/1/4 386/1/4 393/1/4
f 389/1/4 390/1/4 394/1/4
f 394/1/4 390/1/4 395/1/4
f 391/1/4 392/1/4 398/1/4
f 398/1/4 392/1/4 399/1/4
f 395/1/4 396/1/4 400/1/4
f 400/1/4 396/1/4 401/1/4
f 397/1/4 398/1/4 403/1/4
f 403/1/4 398/1/4 404/1/4
f 401/1/4 402/1/4 405/1/4
f 405/1/4 402/1/4 406/1/4
f 407/1/4 408/1/4 410/1/4
f 410/1/4 408/1/4 411/1/4
f 409/1/4 410/1/4 414/1/4
f 411/1/4 412/1/4 414/1/4
f 410/1/4 411/1/4 414/1/4
f 414/1/4 412/1/4 415/1/4
f 413/1/4 414/1/4 418/1/4
f 415/1/4 416/1/4 418/1/4
f 414/1/4 415/1/4 418/1/4
f 418/1/4 416/1/4 419/1/4
f 417/1/4 418/1/4 422/1/4
f 419/1/4 420/1/4 422/1/4
f 418/1/4 419/1/4 422/1/4
f 422/1/4 420/1/4 423/1/4
f 421/1/4 422/1/4 426/1/4
f 423/1/4 424/1/4 426/1/4
f 422/1/4 423/1/4 426/1/4
f 426/1/4 424/1/4 427/1/4
f 425/1/4 426/1/4 429/1/4
f 427/1/4 428/1/4 429/1/4
f 426/1/4 427/1/4 429/1/4
f 429/1/4 428/1/4 430/1/4
f 430/1/4 428/1/4 431/1/4
f 431/1/4 428/1/4 432/1/4
f 430/1/4 431/1/4 433/1/4
f 433/1/4 431/1/4 434/1/4
f 434/1/4 431/1/4 435/1/4
f 435/1/4 431/1/4 436/1/4
f 434/1/4 435/1/4 437/1/4
f 437/1/4 435/1/4 438/1/4
f 438/1/4 435/1/4 439/1/4
f 439/1/4 435/1/4 440/1/4
f 438/1/4 439/1/4 441/1/4
f 441/1/4 439/1/4 442/1/4
f 442/1/4 439/1/4 443/1/4
f 443/1/4 439/1/4 444/1/4
f 442/1/4 443/1/4 445/1/4
f 445/1/4 443/1/4 446/1/4
f 446/1/4 443/1/4 447/1/4
f 447/1/4 443/1/4 448/1/4
f 446/1/4 447/1/4 449/1/4
f 449/1/4 447/1/4 450/1/4
f 453/1/5 452/1/5 451/1/5
f 454/1/5 452/1/5 453/1/5
f 457/1/5 456/1/5 455/1/5
f 458/1/5 456/1/5 457/1/5
f 463/1/5 460/1/5 459/1/5
f 464/1/5 460/1/5 463/1/5
f 465/1/5 462/1/5 461/1/5
f 466/1/5 462/1/5 465/1/5
f 468/2/5 465/2/5 464/2/5
f 469/2/5 465/2/5 468/2/5
f 471/1/5 468/1/5 467/1/5
f 472/1/5 468/1/5 471/1/5
f 473/1/5 470/1/5 469/1/5
f 474/1/5 470/1/5 473/1/5
f 479/1/5 476/1/5 475/1/5
f 480/1/5 476/1/5 479/1/5
f 483/1/5 478/1/5 477/1/5
f 484/1/5 478/1/5 483/1/5
f 486/2/5 481/2/5 480/2/5
f 487/2/5 481/2/5 486/2/5
f 488/2/5 483/2/5 482/2/5
f 489/2/5 483/2/5 488/2/5
f 491/1/5 486/1/5 485/1/5
f 492/1/5 486/1/5 491/1/5
f 493/1/5 490/1/5 489/1/5
f 494/1/5 490/1/5 493/1/5
f 499/1/5 496/1/5 495/1/5
f 500/1/5 496/1/5 499/1/5
f 503/1/5 498/1/5 497/1/5
f 504/1/5 498/1/5 503/1/5
f 506/2/5 501/2/5 500/2/5
f 507/2/5 501/2/5 506/2/5
f 508/2/5 503/2/5 502/2/5
f 509/2/5 503/2/5 508/2/5
f 511/1/5 506/1/5 505/1/5
f 512/1/5 506/1/5 511/1/5
f 513/1/5 510/1/5 509/1/5
f 514/1/5 510/1/5 513/1/5
f 519/1/5 516/1/5 515/1/5
f 520/1/5 516/1/5 519/1/5
f 523/1/5 518/1/5 517/1/5
f 524/1/5 518/1/5 523/1/5
f 526/2/5 521/2/5 520/2/5
f 527/2/5 521/2/5 526/2/5
f 528/2/5 523/2/5 522/2/5
f 529/2/5 523/2/5 528/2/5
f 531/1/5 526/1/5 525/1/5
f 532/1/5 526/1/5 531/1/5
f 533/1/5 530/1/5 529/1/5
f 534/1/5 530/1/5 533/1/5
f 539/1/5 536/1/5 535/1/5
f 540/1/5 536/1/5 539/1/5
f 543/1/5 538/1/5 537/1/5
f 544/1/5 538/1/5 543/1/5
f 546/2/5 541/2/5 540/2/5
f 547/2/5 541/2/5 546/2/5
f 548/2/5 543/2/5 542/2/5
f 549/2/5 543/2/5 548/2/5
f 551/1/5 546/1/5 545/1/5
f 552/1/5 546/1/5 551/1/5
f 553/1/5 550/1/5 549/1/5
f 554/1/5 550/1/5 553/1/5
f 555/1/6 556/1/6 559/1/6
f 559/1/6 556/1/6 560/1/6
f 557/1/6 558/1/6 561/1/6
f 561/1/6 558/1/6 562/1/6
f 563/1/6 564/1/6 567/1/6
f 567/1/6 564/1/6 568/1/6
f 565/1/6 566/1/6 569/1/6
f 569/1/6 566/1/6 570/1/6
f 571/2/6 572/2/6 575/2/6
f 575/2/6 572/2/6 576/2/6
f 573/2/6 574/2/6 577/2/6
f 577/2/6 574/2/6 578/2/6
f 579/1/6 580/1/6 583/1/6
f 583/1/6 580/1/6 584/1/6
f 581/1/6 582/1/6 587/1/6
f 587/1/6 582/1/6 588/1/6
f 584/2/6 585/2/6 590/2/6
f 590/2/6 585/2/6 591/2/6
f 586/2/6 587/2/6 592/2/6
f 592/2/6 587/2/6 593/2/6
f 589/1/6 590/1/6 595/1/6
f 595/1/6 590/1/6 596/1/6
f 593/1/6 594/1/6 597/1/6
f 597/1/6 594/1/6 598/1/6
f 599/1/6 600/1/6 603/1/6
f 603/1/6 600/1/6 604/1/6
f 601/1/6 602/1/6 607/1/6
f 607/1/6 602/1/6 608/1/6
f 604/2/6 605/2/6 610/2/6
f 610/2/6 605/2/6 611/2/6
f 606/2/6 607/2/6 612/2/6
f 612/2/6 607/2/6 613/2/6
f 609/1/6 610/1/6 615/1/6
f 615/1/6 610/1/6 616/1/6
f 613/1/6 614/1/6 617/1/6
f 617/1/6 614/1/6 618/1/6
f 619/1/6 620/1/6 623/1/6
f 623/1/6 620/1/6 624/1/6
f 621/1/6 622/1/6 627/1/6
f 627/1/6 622/1/6 628/1/6
f 624/2/6 625/2/6 630/2/6
f 630/2/6 625/2/6 631/2/6
f 626/2/6 627/2/6 632/2/6
f 632/2/6 627/2/6 633/2/6
f 629/1/6 630/1/6 635/1/6
f 635/1/6 630/1/6 636/1/6
f 633/1/6 634/1/6 637/1/6
f 637/1/6 634/1/6 638/1/6
f 639/1/6 640/1/6 643/1/6
f 643/1/6 640/1/6 644/1/6
f 641/1/6 642/1/6 645/1/6
f 645/1/6 642/1/6 646/1/6
f 644/2/6 645/2/6 648/2/6
f 648/2/6 645/2/6 649/2/6
f 647/1/6 648/1/6 651/1/6
f 651/1/6 648/1/6 652/1/6
f 649/1/6 650/1/6 653/1/6
f 653/1/6 650/1/6 654/1/6
f 655/1/6 656/1/6 657/1/6
f 657/1/6 656/1/6 658/1/6
f 659/1/6 660/1/6 661/1/6
f 661/1/6 660/1/6 662/1/6
